<svg width="42" height="42" viewBox="0 0 42 42" fill="none" xmlns="http://www.w3.org/2000/svg">
<path d="M21 0.166672C9.49127 0.166672 0.166672 9.49127 0.166672 21C0.166672 32.5087 9.49127 41.8333 21 41.8333C32.5087 41.8333 41.8333 32.5087 41.8333 21C41.8333 9.49127 32.5087 0.166672 21 0.166672ZM21 8.23119C25.0827 8.23119 28.3925 11.541 28.3925 15.6237C28.3925 19.7063 25.0827 23.0161 21 23.0161C16.9173 23.0161 13.6075 19.7063 13.6075 15.6237C13.6075 11.541 16.9173 8.23119 21 8.23119ZM21 37.129C16.0689 37.129 11.6502 34.8945 8.69322 31.3999C10.2725 28.4261 13.3639 26.3764 16.9677 26.3764C17.1694 26.3764 17.371 26.41 17.5642 26.4688C18.6563 26.8216 19.7987 27.0484 21 27.0484C22.2013 27.0484 23.3522 26.8216 24.4358 26.4688C24.629 26.41 24.8307 26.3764 25.0323 26.3764C28.6361 26.3764 31.7275 28.4261 33.3068 31.3999C30.3498 34.8945 25.9311 37.129 21 37.129Z" fill="#BB99DD"/>
</svg>
